<?xml version="1.0" encoding="UTF-8" ?>
<!DOCTYPE svg PUBLIC "-//W3C//DTD SVG 1.1//EN" "http://www.w3.org/Graphics/SVG/1.1/DTD/svg11.dtd">
<svg width="640pt" height="640pt" viewBox="0 0 640 640" version="1.1" xmlns="http://www.w3.org/2000/svg">
<g id="#ffffffff">
</g>
<g id="#fd0002ff">
<path fill="#fd0002" opacity="1.00" d=" M 299.34 40.32 C 356.20 36.05 414.25 49.61 463.27 78.79 C 494.70 97.47 522.52 122.28 544.45 151.57 C 567.34 181.96 583.98 217.07 592.86 254.08 C 602.76 294.75 603.47 337.68 594.60 378.61 C 580.79 444.80 541.90 505.38 487.45 545.48 C 458.40 567.12 425.11 583.01 390.01 592.00 C 343.57 604.02 294.02 603.87 247.71 591.29 C 213.47 582.22 181.04 566.48 152.63 545.34 C 119.96 521.03 92.64 489.53 73.32 453.68 C 40.91 394.21 31.14 322.74 46.74 256.81 C 53.88 225.88 66.33 196.18 83.43 169.43 C 113.65 121.76 158.67 83.62 210.71 61.74 C 238.84 49.92 268.88 42.51 299.34 40.32 M 245.99 75.93 C 212.37 86.14 180.87 103.32 154.19 126.20 C 128.42 148.27 107.06 175.49 91.92 205.86 C 61.12 266.59 56.42 339.86 78.98 404.09 C 93.45 445.83 119.02 483.67 152.35 512.67 C 179.12 536.05 210.86 553.72 244.84 564.14 C 288.53 577.83 335.93 579.07 380.39 568.31 C 416.71 559.50 451.06 542.62 480.16 519.18 C 505.62 498.81 526.99 473.41 542.91 444.98 C 561.10 412.56 572.06 376.11 574.78 339.03 C 577.36 304.19 572.77 268.82 561.13 235.87 C 559.12 230.41 557.56 224.67 554.26 219.80 C 553.42 226.90 553.82 234.06 553.22 241.17 C 552.85 245.03 552.94 249.28 550.54 252.56 C 545.94 259.10 538.07 263.34 530.03 263.20 C 519.35 263.32 508.66 263.54 498.00 264.24 C 486.32 264.03 474.65 264.67 463.00 265.31 C 451.31 264.96 439.64 265.80 427.96 266.19 C 420.34 265.70 413.95 270.81 408.69 275.71 C 405.01 279.08 404.77 284.35 403.66 288.89 C 398.75 310.24 393.92 331.63 388.98 352.95 C 405.64 353.46 422.33 353.15 438.99 353.41 C 448.99 353.47 459.00 353.10 468.96 354.03 C 485.95 354.21 502.95 353.98 519.94 354.32 C 526.16 354.62 533.14 355.57 537.50 360.50 C 540.39 363.55 540.65 367.97 540.66 371.94 C 540.65 380.63 541.00 389.34 540.61 398.03 C 540.50 403.12 536.91 407.14 533.84 410.84 C 528.81 416.91 520.68 419.51 513.00 419.37 C 498.00 419.26 483.00 419.40 468.00 419.30 C 451.36 418.09 434.67 418.90 418.00 418.66 C 398.99 418.93 380.00 418.10 360.99 418.27 C 350.84 417.49 340.19 415.36 331.84 409.18 C 327.91 406.40 325.89 401.77 322.15 398.82 C 316.97 402.72 312.44 407.53 306.61 410.54 C 296.20 415.97 284.77 419.72 273.05 420.79 C 255.05 420.70 237.03 421.20 219.04 420.35 C 190.69 420.39 162.35 420.30 134.00 420.26 C 123.66 419.58 113.30 419.66 102.94 419.75 C 97.17 419.84 91.09 418.21 86.87 414.11 C 83.09 410.02 82.99 403.98 83.80 398.78 C 85.04 390.43 86.00 382.02 87.56 373.72 C 88.72 367.80 93.14 363.33 97.46 359.45 C 101.65 355.66 107.37 353.99 112.95 354.07 C 137.64 354.06 162.33 354.21 187.03 354.17 C 208.01 355.10 229.02 354.19 250.00 354.80 C 253.55 354.83 257.12 355.11 260.64 354.57 C 260.87 353.18 260.95 351.78 260.89 350.38 C 242.60 349.95 224.26 350.89 205.99 349.70 C 188.66 349.50 171.33 349.80 154.01 349.52 C 148.62 349.25 142.87 349.75 137.97 347.05 C 126.08 340.71 117.03 329.16 113.93 316.03 C 111.99 307.40 114.00 298.61 114.99 290.00 C 116.03 280.61 117.47 271.27 118.52 261.89 C 119.80 250.59 123.23 238.74 131.62 230.62 C 136.58 225.57 141.44 220.36 147.30 216.33 C 152.69 212.60 158.25 209.07 164.14 206.17 C 169.47 203.69 174.98 201.10 180.96 200.91 C 198.29 199.89 215.66 200.84 232.99 200.17 C 253.67 200.14 274.35 200.03 295.02 200.02 C 305.81 199.57 317.75 197.57 327.42 203.62 C 331.10 205.70 331.19 210.29 331.35 214.01 C 331.48 223.00 331.29 232.00 331.46 240.99 C 331.76 248.23 328.87 255.68 323.72 260.78 C 319.60 264.97 313.36 264.29 308.01 264.27 C 277.00 264.26 245.98 264.16 214.97 264.25 C 205.69 264.30 196.52 267.45 189.22 273.19 C 184.83 276.27 184.92 282.85 186.58 287.37 C 194.39 288.43 202.22 287.03 210.03 286.68 C 232.57 286.32 255.11 286.82 277.64 287.40 C 286.09 288.00 294.57 287.42 303.03 287.70 C 309.50 287.93 315.69 290.35 320.96 294.03 C 324.20 295.93 326.97 298.81 330.66 299.82 C 333.26 292.19 335.28 284.36 337.69 276.67 C 341.55 264.24 344.28 251.41 349.40 239.41 C 357.01 222.71 372.87 211.61 389.05 204.08 C 393.35 201.90 398.16 200.90 402.97 201.09 C 416.98 201.35 430.99 200.72 445.00 200.86 C 457.99 200.74 470.98 201.17 483.96 200.47 C 497.31 200.31 510.66 200.52 524.02 200.37 C 534.25 199.65 543.57 205.39 551.00 211.87 C 546.25 200.28 539.75 189.51 532.94 179.04 C 524.22 166.04 514.49 153.66 503.46 142.54 C 468.61 106.26 422.63 80.90 373.43 70.50 C 331.39 61.49 287.11 63.43 245.99 75.93 M 175.61 226.60 C 168.82 228.24 163.29 232.70 158.00 237.04 C 150.48 242.52 144.86 250.51 142.58 259.55 C 140.99 266.72 137.82 273.59 137.74 281.03 C 137.64 290.70 136.68 300.33 136.32 309.99 C 135.57 317.83 142.08 324.42 148.97 326.97 C 153.87 328.15 158.98 327.47 163.97 327.88 C 195.98 328.37 227.97 329.15 259.97 329.86 C 267.53 330.84 275.65 328.67 282.72 332.27 C 288.60 334.93 294.47 339.47 296.04 346.04 C 296.88 351.82 295.71 358.23 291.75 362.70 C 287.67 367.38 283.07 372.18 276.92 373.93 C 270.76 375.62 264.30 374.95 258.00 375.06 C 246.98 375.16 235.96 375.17 224.95 375.26 C 212.99 376.15 200.98 375.56 189.00 375.76 C 176.64 375.53 164.31 376.48 151.95 376.22 C 139.98 377.10 127.98 376.77 115.99 376.71 C 113.81 376.73 111.59 376.72 109.47 377.31 C 108.30 383.68 107.07 390.08 106.32 396.52 C 120.53 396.90 134.78 396.27 148.99 396.98 C 159.67 397.20 170.36 396.66 181.02 397.47 C 198.67 397.57 216.33 397.63 233.99 397.71 C 244.98 398.35 256.00 398.05 267.00 398.14 C 272.92 398.22 278.71 396.54 284.01 394.01 C 293.55 389.45 302.37 383.32 309.91 375.91 C 318.35 366.98 320.85 354.54 322.77 342.83 C 323.29 337.39 323.74 331.32 320.32 326.65 C 315.96 320.44 310.45 314.40 303.04 311.95 C 298.26 310.09 293.06 310.30 288.03 310.13 C 261.36 308.94 234.66 308.97 208.00 307.68 C 197.33 308.10 186.70 307.08 176.06 306.59 C 170.19 306.30 166.08 301.37 163.27 296.72 C 160.46 292.34 161.17 286.93 161.07 282.00 C 161.16 276.09 160.85 269.53 164.48 264.49 C 172.21 254.27 183.03 245.51 195.93 243.28 C 208.93 242.27 221.98 242.75 235.00 242.53 C 245.35 242.90 255.65 241.49 266.00 241.92 C 280.19 241.55 294.39 241.69 308.57 241.50 C 309.68 235.39 310.26 229.16 310.58 222.96 C 305.74 222.44 300.86 222.75 296.00 222.70 C 262.33 222.67 228.65 222.78 194.98 222.69 C 188.33 222.73 182.03 225.14 175.61 226.60 M 408.06 224.07 C 397.02 226.35 387.45 232.80 378.85 239.79 C 374.96 242.95 370.93 246.56 369.63 251.61 C 360.16 285.45 350.63 319.28 341.13 353.11 C 338.80 361.81 336.72 370.89 338.03 379.93 C 338.85 386.46 344.15 391.54 349.94 394.07 C 356.24 396.91 363.25 396.81 370.00 396.65 C 417.01 396.66 464.02 396.60 511.02 396.69 C 512.48 396.58 514.62 396.83 514.98 394.93 C 516.65 389.48 516.89 383.66 517.19 377.99 C 492.13 377.69 467.06 377.96 442.00 377.87 C 424.67 377.98 407.33 377.58 390.01 378.21 C 379.64 378.52 369.68 371.93 365.35 362.63 C 363.05 357.69 363.71 352.08 364.56 346.88 C 367.77 326.76 374.57 307.49 379.91 287.89 C 381.64 281.96 383.09 275.94 385.11 270.10 C 386.80 265.27 390.26 261.37 393.88 257.86 C 398.13 253.75 402.07 249.00 407.64 246.59 C 414.58 243.24 422.49 243.66 429.99 243.38 C 454.65 242.56 479.29 241.38 503.94 240.28 C 512.79 239.40 521.77 240.34 530.55 238.82 C 531.18 233.59 531.62 228.32 531.81 223.06 C 527.57 222.44 523.27 222.75 519.00 222.72 C 487.67 222.72 456.34 222.73 425.00 222.71 C 419.33 222.61 413.57 222.52 408.06 224.07 Z" />
</g>
</svg>
